<svg id="Layer_1" height="512" viewBox="0 0 256 256" width="512" xmlns="http://www.w3.org/2000/svg"><g><path d="m58.285 219.699c-1.381 0-2.5-1.119-2.5-2.5v-153.399c0-1.381 1.119-2.5 2.5-2.5s2.5 1.119 2.5 2.5v153.399c0 1.381-1.119 2.5-2.5 2.5z" fill="#ebe7f2"/><path d="m197.715 219.699c-1.381 0-2.5-1.119-2.5-2.5v-153.399c0-1.381 1.119-2.5 2.5-2.5s2.5 1.119 2.5 2.5v153.399c0 1.381-1.119 2.5-2.5 2.5z" fill="#ebe7f2"/><g fill="#846f75"><path d="m217.262 36.238h-178.524c-1.381 0-2.5 1.119-2.5 2.5v178.523c0 1.381 1.119 2.5 2.5 2.5h178.523c1.381 0 2.5-1.119 2.5-2.5v-178.523c.001-1.381-1.118-2.5-2.499-2.5zm-2.5 5v20.062h-173.524v-20.062zm-173.524 173.524v-148.462h173.523v148.462z"/><path d="m58.942 58.644c3.763 0 6.823-3.061 6.823-6.823s-3.061-6.823-6.823-6.823-6.823 3.061-6.823 6.823 3.061 6.823 6.823 6.823zm0-8.647c1.005 0 1.823.818 1.823 1.823s-.818 1.823-1.823 1.823-1.823-.818-1.823-1.823.819-1.823 1.823-1.823z"/><path d="m75.781 58.644c3.763 0 6.823-3.061 6.823-6.823s-3.061-6.823-6.823-6.823-6.824 3.061-6.824 6.823 3.062 6.823 6.824 6.823zm0-8.647c1.005 0 1.823.818 1.823 1.823s-.818 1.823-1.823 1.823c-1.006 0-1.824-.818-1.824-1.823s.818-1.823 1.824-1.823z"/><path d="m92.619 58.644c3.763 0 6.824-3.061 6.824-6.823s-3.062-6.823-6.824-6.823-6.823 3.061-6.823 6.823 3.06 6.823 6.823 6.823zm0-8.647c1.006 0 1.824.818 1.824 1.823s-.818 1.823-1.824 1.823c-1.005 0-1.823-.818-1.823-1.823s.818-1.823 1.823-1.823z"/><path d="m171.993 54.32h26.396c1.381 0 2.5-1.119 2.5-2.5s-1.119-2.5-2.5-2.5h-26.396c-1.381 0-2.5 1.119-2.5 2.5s1.119 2.5 2.5 2.5z"/></g><g fill="#a58bc9"><path d="m114.619 180.169c-.976 0-1.951-.193-2.88-.579-3.818-1.589-5.633-5.987-4.045-9.805l26.762-64.331c.77-1.85 2.213-3.289 4.064-4.053 1.852-.765 3.889-.761 5.74.008 3.818 1.589 5.633 5.987 4.045 9.805l-26.762 64.331c-.77 1.85-2.213 3.289-4.064 4.053-.922.381-1.891.571-2.86.571zm-.96-5.196c.617.258 1.296.257 1.913.003s1.099-.734 1.354-1.351l26.762-64.331c.529-1.272-.075-2.738-1.348-3.268-.617-.257-1.296-.258-1.913-.003-.617.254-1.099.734-1.354 1.351l-26.762 64.331c-.529 1.273.076 2.738 1.348 3.268z"/><path d="m161.107 168.452c-1.921 0-3.841-.731-5.303-2.193-2.924-2.924-2.924-7.682 0-10.605l15.153-15.154-15.153-15.153c-1.417-1.416-2.196-3.3-2.196-5.303s.779-3.887 2.196-5.303c2.924-2.924 7.682-2.924 10.605 0l23.993 23.991c.469.469.732 1.104.732 1.768s-.264 1.299-.732 1.768l-23.993 23.992c-1.461 1.461-3.382 2.192-5.302 2.192zm0-50.908c-.668 0-1.296.26-1.768.731-.975.975-.975 2.561 0 3.535l16.921 16.921c.977.977.977 2.559 0 3.535l-16.921 16.922c-.975.975-.975 2.561 0 3.535s2.561.975 3.535 0l22.226-22.225-22.226-22.224c-.471-.47-1.099-.73-1.767-.73z"/><path d="m94.893 168.452c-1.921 0-3.841-.731-5.303-2.193l-23.993-23.992c-.469-.469-.732-1.104-.732-1.768s.264-1.299.732-1.768l23.993-23.991c2.924-2.924 7.682-2.924 10.605 0 1.417 1.416 2.196 3.3 2.196 5.303s-.779 3.887-2.196 5.303l-15.153 15.153 15.153 15.154c2.924 2.924 2.924 7.682 0 10.605-1.462 1.463-3.382 2.194-5.302 2.194zm-23.994-27.953 22.226 22.225c.975.975 2.561.975 3.535 0s.975-2.561 0-3.535l-16.921-16.922c-.977-.977-.977-2.559 0-3.535l16.921-16.921c.975-.975.975-2.561 0-3.535-.943-.943-2.592-.943-3.535 0z"/></g></g></svg>