<?xml version="1.0"?>
<svg xmlns="http://www.w3.org/2000/svg" viewBox="0 0 64 64" width="512" height="512"><g id="book-education-knowledge-2" data-name="book-education-knowledge"><path d="M61,3H28a6.006,6.006,0,0,0-6,6v4H8a6.006,6.006,0,0,0-6,6V55a6.006,6.006,0,0,0,6,6H41a1,1,0,0,0,1-1V57a1,1,0,0,0-1-1V54a1,1,0,0,0,1-1V51H61a1,1,0,0,0,1-1V47a1,1,0,0,0-1-1V44a1,1,0,0,0,1-1V4A1,1,0,0,0,61,3ZM60,42H30V41H60ZM28,49a4,4,0,0,1,0-8ZM28,5V39a5.969,5.969,0,0,0-4,1.54V9A4,4,0,0,1,28,5ZM22,45a5.969,5.969,0,0,0,1.54,4H10V15H22ZM8,15V49a5.969,5.969,0,0,0-4,1.54V19A4,4,0,0,1,8,15ZM4,55a4,4,0,0,1,4-4v8A4,4,0,0,1,4,55Zm36,4H10V58H40Zm-1-3H10V54H39Zm1-4H10V51H40Zm20-3H30V48H60Zm-1-3H30V44H59Zm1-7H30V5H60V39Z"/><path d="M55,9H35a1,1,0,0,0-1,1v8a1,1,0,0,0,1,1H55a1,1,0,0,0,1-1V10A1,1,0,0,0,55,9Zm-1,8H36V11H54Z"/></g></svg>
